<svg xmlns="http://www.w3.org/2000/svg" version="1.1" xmlns:xlink="http://www.w3.org/1999/xlink" xmlns:svgjs="http://svgjs.dev/svgjs" width="1500" height="446" viewBox="0 0 1500 446"><g transform="matrix(1,0,0,1,-0.9090909090909918,-1.4561420955629956)"><svg viewBox="0 0 396 118" data-background-color="#ffffff" preserveAspectRatio="xMidYMid meet" height="446" width="1500" xmlns="http://www.w3.org/2000/svg" xmlns:xlink="http://www.w3.org/1999/xlink"><g id="tight-bounds" transform="matrix(1,0,0,1,0.2400000000000091,0.3852573257319136)"><svg viewBox="0 0 395.52 117.2294853485362" height="117.2294853485362" width="395.52"><g><svg viewBox="0 0 594.9577296329359 176.34149587632135" height="117.2294853485362" width="395.52"><g transform="matrix(1,0,0,1,199.43772963293588,14.838123274454347)"><svg viewBox="0 0 395.52 146.66524932741265" height="146.66524932741265" width="395.52"><g id="textblocktransform"><svg viewBox="0 0 395.52 146.66524932741265" height="146.66524932741265" width="395.52" id="textblock"><g><svg viewBox="0 0 395.52 97.83389144434223" height="97.83389144434223" width="395.52"><g transform="matrix(1,0,0,1,0,0)"><svg width="395.52" viewBox="0.2 -39.5 212.29000000000002 52.51" height="97.83389144434223" data-palette-color="#01df67"><path d="M34.64-35.16L22.19 0 13.33 0 0.2-35.16 10.08-35.16 19.82-6.86 28.64-35.16 34.64-35.16ZM65.67-14.16L65.67-14.16Q65.67-11.96 65.09-10.03 64.5-8.11 63.46-6.47 62.42-4.83 60.96-3.53 59.49-2.22 57.75-1.32 56-0.42 54.01 0.07 52.02 0.56 49.92 0.56L49.92 0.56Q47.82 0.56 45.85 0.07 43.87-0.42 42.12-1.32 40.38-2.22 38.91-3.53 37.45-4.83 36.41-6.47 35.37-8.11 34.79-10.05 34.2-11.99 34.2-14.16L34.2-14.16Q34.2-16.33 34.79-18.27 35.37-20.21 36.41-21.85 37.45-23.49 38.91-24.79 40.38-26.1 42.12-27 43.87-27.91 45.85-28.39 47.82-28.88 49.92-28.88L49.92-28.88Q52.02-28.88 54.01-28.39 56-27.91 57.75-27 59.49-26.1 60.96-24.79 62.42-23.49 63.46-21.85 64.5-20.21 65.09-18.27 65.67-16.33 65.67-14.16ZM57.27-14.16L57.27-14.16Q57.27-15.33 57.14-16.64 57-17.94 56.69-19.2 56.37-20.46 55.82-21.62 55.27-22.78 54.47-23.65 53.66-24.51 52.54-25.04 51.41-25.56 49.92-25.56L49.92-25.56Q48.51-25.56 47.41-25.02 46.31-24.49 45.49-23.6 44.68-22.71 44.13-21.53 43.58-20.36 43.23-19.1 42.89-17.85 42.75-16.56 42.6-15.28 42.6-14.16L42.6-14.16Q42.6-13.04 42.75-11.76 42.89-10.47 43.23-9.2 43.58-7.93 44.13-6.77 44.68-5.62 45.49-4.72 46.31-3.83 47.41-3.3 48.51-2.76 49.92-2.76L49.92-2.76Q51.39-2.76 52.51-3.28 53.64-3.81 54.45-4.69 55.27-5.57 55.81-6.71 56.35-7.86 56.67-9.13 57-10.4 57.14-11.69 57.27-12.99 57.27-14.16ZM89.69-28.2L95.41-28.2 85.15-3.39Q83.39 0.85 81.23 5.02 79.07 9.18 76.56 13.01L76.56 13.01 73.33 11.06Q73.95 9.96 74.78 8.52 75.61 7.08 76.41 5.54 77.22 4 77.9 2.5 78.58 1 78.95-0.24L78.95-0.24 66.62-28.2 74.87-28.2 83.25-9.13 89.69-28.2ZM126.73-28.2L126.73 0 118.47 0 118.47-3.37Q117.01-1.37 114.95-0.4 112.88 0.56 110.42 0.56L110.42 0.56Q107.19 0.56 104.66-0.59 102.12-1.73 100.36-3.72 98.6-5.71 97.67-8.4 96.75-11.08 96.75-14.16L96.75-14.16Q96.75-17.24 97.67-19.92 98.6-22.61 100.36-24.6 102.12-26.59 104.66-27.73 107.19-28.88 110.42-28.88L110.42-28.88Q112.05-28.88 113.53-28.39 115.01-27.91 116.24-27.01 117.47-26.12 118.41-24.87 119.35-23.61 119.89-22.07L119.89-22.07 123.55-28.2 126.73-28.2ZM118.43-14.16L118.43-14.16Q118.43-15.26 118.32-16.48 118.21-17.7 117.94-18.9 117.67-20.09 117.19-21.18 116.72-22.27 115.97-23.11 115.23-23.95 114.18-24.44 113.13-24.93 111.74-24.93L111.74-24.93Q110.34-24.93 109.32-24.43 108.29-23.93 107.56-23.08 106.83-22.24 106.35-21.14 105.88-20.04 105.61-18.85 105.34-17.65 105.23-16.44 105.12-15.23 105.12-14.16L105.12-14.16Q105.12-13.09 105.23-11.87 105.34-10.64 105.61-9.45 105.88-8.25 106.35-7.15 106.83-6.05 107.56-5.21 108.29-4.37 109.32-3.87 110.34-3.37 111.74-3.37L111.74-3.37Q113.01-3.37 113.99-3.89 114.98-4.42 115.73-5.3 116.47-6.18 116.98-7.3 117.5-8.42 117.81-9.62 118.13-10.82 118.28-12 118.43-13.18 118.43-14.16ZM162-28.2L162-3.39Q162-0.02 161 2.95 160 5.93 158.1 8.17 156.19 10.4 153.42 11.71 150.65 13.01 147.11 13.01L147.11 13.01Q145.16 13.01 143.17 12.57 141.18 12.13 139.41 11.22 137.64 10.3 136.23 8.9 134.83 7.5 134.02 5.59L134.02 5.59 137.59 4.25Q138.05 5.44 138.8 6.45 139.54 7.45 140.52 8.17 141.49 8.89 142.67 9.29 143.84 9.69 145.13 9.69L145.13 9.69Q147.57 9.69 149.22 8.69 150.87 7.69 151.87 6.08 152.87 4.47 153.31 2.43 153.75 0.39 153.75-1.71L153.75-1.71 153.75-3.37Q152.28-1.37 150.22-0.4 148.16 0.56 145.69 0.56L145.69 0.56Q142.47 0.56 139.93-0.59 137.39-1.73 135.63-3.72 133.88-5.71 132.95-8.4 132.02-11.08 132.02-14.16L132.02-14.16Q132.02-17.24 132.95-19.92 133.88-22.61 135.63-24.6 137.39-26.59 139.93-27.73 142.47-28.88 145.69-28.88L145.69-28.88Q147.33-28.88 148.81-28.39 150.28-27.91 151.52-27.01 152.75-26.12 153.69-24.87 154.63-23.61 155.17-22.07L155.17-22.07 158.83-28.2 162-28.2ZM153.7-14.16L153.7-14.16Q153.7-15.26 153.59-16.48 153.48-17.7 153.21-18.9 152.94-20.09 152.47-21.18 151.99-22.27 151.25-23.11 150.5-23.95 149.45-24.44 148.4-24.93 147.01-24.93L147.01-24.93Q145.62-24.93 144.59-24.43 143.57-23.93 142.84-23.08 142.1-22.24 141.63-21.14 141.15-20.04 140.88-18.85 140.62-17.65 140.51-16.44 140.4-15.23 140.4-14.16L140.4-14.16Q140.4-13.09 140.51-11.87 140.62-10.64 140.88-9.45 141.15-8.25 141.63-7.15 142.1-6.05 142.84-5.21 143.57-4.37 144.59-3.87 145.62-3.37 147.01-3.37L147.01-3.37Q148.28-3.37 149.27-3.89 150.26-4.42 151-5.3 151.75-6.18 152.26-7.3 152.77-8.42 153.09-9.62 153.41-10.82 153.55-12 153.7-13.18 153.7-14.16ZM177.55-35.01L177.55-35.01Q177.55-34.08 177.2-33.25 176.84-32.42 176.23-31.81 175.62-31.2 174.79-30.85 173.96-30.49 173.03-30.49L173.03-30.49Q172.11-30.49 171.29-30.85 170.47-31.2 169.86-31.81 169.25-32.42 168.9-33.25 168.54-34.08 168.54-35.01L168.54-35.01Q168.54-35.94 168.9-36.76 169.25-37.57 169.86-38.18 170.47-38.79 171.29-39.15 172.11-39.5 173.03-39.5L173.03-39.5Q173.96-39.5 174.79-39.15 175.62-38.79 176.23-38.18 176.84-37.57 177.2-36.76 177.55-35.94 177.55-35.01ZM177.18-28.17L177.18 0 168.91 0 168.91-28.17 177.18-28.17ZM212.49-28.2L212.49 0 204.23 0 204.23-3.37Q202.77-1.37 200.71-0.4 198.64 0.56 196.18 0.56L196.18 0.56Q192.95 0.56 190.41-0.59 187.88-1.73 186.12-3.72 184.36-5.71 183.43-8.4 182.5-11.08 182.5-14.16L182.5-14.16Q182.5-17.24 183.43-19.92 184.36-22.61 186.12-24.6 187.88-26.59 190.41-27.73 192.95-28.88 196.18-28.88L196.18-28.88Q197.81-28.88 199.29-28.39 200.77-27.91 202-27.01 203.23-26.12 204.17-24.87 205.11-23.61 205.65-22.07L205.65-22.07 209.31-28.2 212.49-28.2ZM204.18-14.16L204.18-14.16Q204.18-15.26 204.07-16.48 203.96-17.7 203.7-18.9 203.43-20.09 202.95-21.18 202.48-22.27 201.73-23.11 200.99-23.95 199.94-24.44 198.89-24.93 197.49-24.93L197.49-24.93Q196.1-24.93 195.08-24.43 194.05-23.93 193.32-23.08 192.59-22.24 192.11-21.14 191.64-20.04 191.37-18.85 191.1-17.65 190.99-16.44 190.88-15.23 190.88-14.16L190.88-14.16Q190.88-13.09 190.99-11.87 191.1-10.64 191.37-9.45 191.64-8.25 192.11-7.15 192.59-6.05 193.32-5.21 194.05-4.37 195.08-3.87 196.1-3.37 197.49-3.37L197.49-3.37Q198.76-3.37 199.75-3.89 200.74-4.42 201.49-5.3 202.23-6.18 202.74-7.3 203.26-8.42 203.57-9.62 203.89-10.82 204.04-12 204.18-13.18 204.18-14.16Z" opacity="1" transform="matrix(1,0,0,1,0,0)" fill="#01df67" class="wordmark-text-0" data-fill-palette-color="primary" id="text-0"></path></svg></g></svg></g><g transform="matrix(1,0,0,1,0,120.93012520095677)"><svg viewBox="0 0 296.83776 25.735124126455904" height="25.735124126455904" width="296.83776"><g transform="matrix(1,0,0,1,0,0)"><svg width="296.83776" viewBox="3.9 -37.35 570.89 49.50000000000001" height="25.735124126455904" data-palette-color="#ffb100"><path d="M23.65 0L12.4-16.45 9.4-12.75 9.4 0 3.9 0 3.9-36.75 9.4-36.75 9.4-20.35 22-36.75 28.7-36.75 16.05-20.6 30.5 0 23.65 0ZM44.15 0.5Q40.05 0.5 37.3-1.13 34.55-2.75 33.25-5.48 31.95-8.2 31.95-11.45L31.95-11.45Q31.95-15.1 33.47-17.85 35-20.6 37.7-22.08 40.4-23.55 43.8-23.55L43.8-23.55Q49.1-23.55 51.67-20.63 54.25-17.7 54.25-12.4L54.25-12.4Q54.25-11.05 54.1-9.6L54.1-9.6 37.6-9.6Q38.15-6.55 39.77-5.2 41.4-3.85 44.3-3.85L44.3-3.85Q46.7-3.85 48.25-4.25 49.8-4.65 51.1-5.35L51.1-5.35 52.75-1.5Q51.5-0.7 49.35-0.1 47.2 0.5 44.15 0.5L44.15 0.5ZM37.6-13.35L49-13.35Q49.05-16.45 47.65-17.73 46.25-19 43.65-19L43.65-19Q38.4-19 37.6-13.35L37.6-13.35ZM70.75 0.5Q66.64 0.5 63.89-1.13 61.14-2.75 59.84-5.48 58.55-8.2 58.55-11.45L58.55-11.45Q58.55-15.1 60.07-17.85 61.59-20.6 64.3-22.08 67-23.55 70.39-23.55L70.39-23.55Q75.69-23.55 78.27-20.63 80.84-17.7 80.84-12.4L80.84-12.4Q80.84-11.05 80.69-9.6L80.69-9.6 64.19-9.6Q64.75-6.55 66.37-5.2 68-3.85 70.89-3.85L70.89-3.85Q73.3-3.85 74.84-4.25 76.39-4.65 77.69-5.35L77.69-5.35 79.34-1.5Q78.09-0.7 75.94-0.1 73.8 0.5 70.75 0.5L70.75 0.5ZM64.19-13.35L75.59-13.35Q75.64-16.45 74.25-17.73 72.84-19 70.25-19L70.25-19Q65-19 64.19-13.35L64.19-13.35ZM86.59 12.15L86.59-22.95 91.79-22.95 91.79-18.7Q94.54-23.55 100.39-23.55L100.39-23.55Q105.24-23.55 108.24-20.48 111.24-17.4 111.24-11.6L111.24-11.6Q111.24-8 109.77-5.25 108.29-2.5 105.77-1 103.24 0.5 100.14 0.5L100.14 0.5Q97.24 0.5 95.12-0.53 92.99-1.55 91.79-3.45L91.79-3.45 91.84 12.15 86.59 12.15ZM98.89-4.05Q102.14-4.05 103.89-6.13 105.64-8.2 105.64-11.45L105.64-11.45Q105.64-14.85 103.92-16.88 102.19-18.9 98.89-18.9L98.89-18.9Q97.09-18.9 95.52-18.03 93.94-17.15 93.02-15.53 92.09-13.9 92.09-11.75L92.09-11.75 92.09-11.4Q92.09-9.25 93.02-7.58 93.94-5.9 95.49-4.98 97.04-4.05 98.89-4.05L98.89-4.05ZM137.64 0L137.64-17.15 124.89-36.75 131.59-36.75 140.44-22.25 149.29-36.75 155.94-36.75 143.24-17.05 143.24 0 137.64 0ZM165.88 0.5Q162.33 0.5 159.58-1.1 156.83-2.7 155.33-5.45 153.83-8.2 153.83-11.55L153.83-11.55Q153.83-14.85 155.31-17.6 156.78-20.35 159.53-21.95 162.28-23.55 165.88-23.55L165.88-23.55Q169.48-23.55 172.21-21.95 174.94-20.35 176.41-17.6 177.88-14.85 177.88-11.55L177.88-11.55Q177.88-8.2 176.38-5.45 174.88-2.7 172.16-1.1 169.44 0.5 165.88 0.5L165.88 0.5ZM166.03-3.9Q168.94-3.9 170.61-6.05 172.28-8.2 172.28-11.45L172.28-11.45Q172.28-14.7 170.48-16.93 168.69-19.15 165.73-19.15L165.73-19.15Q162.88-19.15 161.16-16.95 159.44-14.75 159.44-11.45L159.44-11.45Q159.44-8.25 161.28-6.08 163.13-3.9 166.03-3.9L166.03-3.9ZM191.58 0.5Q186.83 0.5 185.06-2.3 183.28-5.1 183.28-10.1L183.28-10.1 183.28-22.95 188.68-22.95 188.68-11.45Q188.68-8.6 189.01-7.03 189.33-5.45 190.31-4.7 191.28-3.95 193.23-3.95L193.23-3.95Q194.63-3.95 195.93-4.75 197.23-5.55 198.06-6.93 198.88-8.3 198.88-9.95L198.88-9.95 198.88-22.95 204.23-22.95 204.23 0 199.83 0 199.23-3.35Q197.98-1.4 196.11-0.45 194.23 0.5 191.58 0.5L191.58 0.5ZM211.28 0L211.28-22.95 216.68-22.95 216.68-18.45Q217.48-20.75 219.28-22.15 221.08-23.55 223.38-23.55L223.38-23.55Q224.98-23.55 225.58-23.25L225.58-23.25 224.83-17.8Q224.38-18.1 222.88-18.1L222.88-18.1Q220.53-18.1 218.6-16.6 216.68-15.1 216.68-11.8L216.68-11.8 216.68 0 211.28 0ZM260.27 0L251.42-17.15 249.13-22.35 248.07-17.15 244.67 0 239.13 0 246.72-36.75 247.32-36.75 257.43-16.9 260.43-10.25 263.43-16.9 273.32-36.75 273.88-36.75 281.77 0 276.27 0 272.57-17.15 271.47-22.35 269.47-17.15 260.57 0 260.27 0ZM297.22 0.5Q293.12 0.5 290.37-1.13 287.62-2.75 286.32-5.48 285.02-8.2 285.02-11.45L285.02-11.45Q285.02-15.1 286.55-17.85 288.07-20.6 290.77-22.08 293.47-23.55 296.87-23.55L296.87-23.55Q302.17-23.55 304.75-20.63 307.32-17.7 307.32-12.4L307.32-12.4Q307.32-11.05 307.17-9.6L307.17-9.6 290.67-9.6Q291.22-6.55 292.85-5.2 294.47-3.85 297.37-3.85L297.37-3.85Q299.77-3.85 301.32-4.25 302.87-4.65 304.17-5.35L304.17-5.35 305.82-1.5Q304.57-0.7 302.42-0.1 300.27 0.5 297.22 0.5L297.22 0.5ZM290.67-13.35L302.07-13.35Q302.12-16.45 300.72-17.73 299.32-19 296.72-19L296.72-19Q291.47-19 290.67-13.35L290.67-13.35ZM312.97 0L312.97-22.95 318.37-22.95 318.37-18.8Q319.47-21.15 321.6-22.35 323.72-23.55 326.47-23.55L326.47-23.55Q332.62-23.5 334.02-19.3L334.02-19.3Q335.12-21.25 337.32-22.4 339.52-23.55 341.97-23.55L341.97-23.55Q345.57-23.55 347.42-22.18 349.27-20.8 349.9-18.28 350.52-15.75 350.52-11.5L350.52-11.5 350.52 0 345.07 0 345.07-11.55Q345.07-15.6 344.25-17.35 343.42-19.1 341.07-19.1L341.07-19.1Q337.92-19.1 336.3-16.98 334.67-14.85 334.67-11.4L334.67-11.4 334.67 0 329.27 0 329.27-12.35Q329.27-15 329.07-16.3 328.87-17.6 327.97-18.35 327.07-19.1 325.07-19.1L325.07-19.1Q323.32-19.1 321.8-18.05 320.27-17 319.35-15.23 318.42-13.45 318.42-11.4L318.42-11.4 318.42 0 312.97 0ZM368.12 0.5Q364.57 0.5 361.82-1.1 359.07-2.7 357.57-5.45 356.07-8.2 356.07-11.55L356.07-11.55Q356.07-14.85 357.54-17.6 359.02-20.35 361.77-21.95 364.52-23.55 368.12-23.55L368.12-23.55Q371.72-23.55 374.44-21.95 377.17-20.35 378.64-17.6 380.12-14.85 380.12-11.55L380.12-11.55Q380.12-8.2 378.62-5.45 377.12-2.7 374.39-1.1 371.67 0.5 368.12 0.5L368.12 0.5ZM368.27-3.9Q371.17-3.9 372.84-6.05 374.52-8.2 374.52-11.45L374.52-11.45Q374.52-14.7 372.72-16.93 370.92-19.15 367.97-19.15L367.97-19.15Q365.12-19.15 363.39-16.95 361.67-14.75 361.67-11.45L361.67-11.45Q361.67-8.25 363.52-6.08 365.37-3.9 368.27-3.9L368.27-3.9ZM385.71 0L385.71-22.95 391.12-22.95 391.12-18.45Q391.92-20.75 393.71-22.15 395.51-23.55 397.81-23.55L397.81-23.55Q399.42-23.55 400.01-23.25L400.01-23.25 399.26-17.8Q398.81-18.1 397.31-18.1L397.31-18.1Q394.96-18.1 393.04-16.6 391.12-15.1 391.12-11.8L391.12-11.8 391.12 0 385.71 0ZM404.21 0L404.21-22.95 409.81-22.95 409.81 0 404.21 0ZM406.96-27.25Q405.41-27.25 404.36-28.3 403.31-29.35 403.31-30.9L403.31-30.9Q403.31-32.3 404.36-33.3 405.41-34.3 406.96-34.3L406.96-34.3Q408.46-34.3 409.51-33.3 410.56-32.3 410.56-30.9L410.56-30.9Q410.56-29.35 409.54-28.3 408.51-27.25 406.96-27.25L406.96-27.25ZM428.16 0.5Q424.06 0.5 421.31-1.13 418.56-2.75 417.26-5.48 415.96-8.2 415.96-11.45L415.96-11.45Q415.96-15.1 417.49-17.85 419.01-20.6 421.71-22.08 424.41-23.55 427.81-23.55L427.81-23.55Q433.11-23.55 435.69-20.63 438.26-17.7 438.26-12.4L438.26-12.4Q438.26-11.05 438.11-9.6L438.11-9.6 421.61-9.6Q422.16-6.55 423.78-5.2 425.41-3.85 428.31-3.85L428.31-3.85Q430.71-3.85 432.26-4.25 433.81-4.65 435.11-5.35L435.11-5.35 436.76-1.5Q435.51-0.7 433.36-0.1 431.21 0.5 428.16 0.5L428.16 0.5ZM421.61-13.35L433.01-13.35Q433.06-16.45 431.66-17.73 430.26-19 427.66-19L427.66-19Q422.41-19 421.61-13.35L421.61-13.35ZM451.81 0.5Q449.41 0.5 446.83-0.13 444.26-0.75 443.16-1.6L443.16-1.6 444.96-5.85Q447.96-3.75 451.81-3.75L451.81-3.75Q455.66-3.75 455.66-6L455.66-6Q455.66-7 454.86-7.55 454.06-8.1 452.01-8.85L452.01-8.85 450.11-9.55Q447.11-10.75 445.36-12.43 443.61-14.1 443.61-16.85L443.61-16.85Q443.61-20 446.08-21.78 448.56-23.55 452.71-23.55L452.71-23.55Q454.76-23.55 456.73-23.1 458.71-22.65 459.76-21.95L459.76-21.95 457.81-17.65Q457.16-18.3 455.73-18.78 454.31-19.25 452.56-19.25L452.56-19.25Q449.01-19.25 449.01-17.1L449.01-17.1Q449.01-15.9 449.96-15.28 450.91-14.65 453.06-13.9L453.06-13.9Q453.26-13.85 454.61-13.35L454.61-13.35Q457.81-12.1 459.36-10.5 460.91-8.9 460.91-6.4L460.91-6.4Q460.91-3 458.33-1.25 455.76 0.5 451.81 0.5L451.81 0.5ZM487.55 0.5Q484.55 0.5 481.6-0.55 478.65-1.6 477.35-2.9L477.35-2.9 480-7.65Q481.05-6.7 483.28-5.68 485.5-4.65 487.55-4.65L487.55-4.65Q490.2-4.65 491.88-5.9 493.55-7.15 493.55-9.35L493.55-9.35Q493.55-11.05 492.65-12.3 491.75-13.55 490.45-14.38 489.15-15.2 486.75-16.4L486.75-16.4Q483.9-17.8 482.85-18.5L482.85-18.5Q478-21.75 478-27.5L478-27.5Q478-32.25 481.15-34.77 484.3-37.3 489.1-37.3L489.1-37.3Q494.25-37.3 497.85-34.35L497.85-34.35 495.2-29.8Q494.25-30.8 492.53-31.53 490.8-32.25 488.85-32.25L488.85-32.25Q486.35-32.25 484.93-31.13 483.5-30 483.5-27.8L483.5-27.8Q483.5-26.25 484.4-25.03 485.3-23.8 486.68-22.9 488.05-22 490.4-20.7L490.4-20.7Q492.65-19.45 493.85-18.73 495.05-18 496.1-17L496.1-17Q497.55-15.7 498.45-13.9 499.35-12.1 499.35-9.95L499.35-9.95Q499.35-6.6 497.83-4.25 496.3-1.9 493.63-0.7 490.95 0.5 487.55 0.5L487.55 0.5ZM515.15 0.5Q512.05 0.5 509.43-0.98 506.8-2.45 505.23-5.18 503.65-7.9 503.65-11.55L503.65-11.55Q503.65-15.15 505.03-17.85 506.4-20.55 508.95-22.05 511.5-23.55 514.95-23.55L514.95-23.55Q516.95-23.55 518.7-22.85 520.45-22.15 521.65-21.13 522.85-20.1 523.25-19.1L523.25-19.1 523.35-22.95 528.5-22.95 528.5 0 523.4 0 523.3-4.05Q522.45-2.25 520.2-0.88 517.95 0.5 515.15 0.5L515.15 0.5ZM516.05-4Q518.9-4 520.85-5.98 522.8-7.95 522.8-11.15L522.8-11.15 522.8-11.5Q522.8-13.65 521.9-15.35 521-17.05 519.45-18 517.9-18.95 516.05-18.95L516.05-18.95Q512.85-18.95 511.1-16.88 509.35-14.8 509.35-11.5L509.35-11.5Q509.35-8.15 511.08-6.08 512.8-4 516.05-4L516.05-4ZM537.9 0L537.9-18.65 534.2-18.65 534.2-22.95 537.9-22.95 537.9-27.9Q537.9-32.4 540.07-34.88 542.25-37.35 546.45-37.35L546.45-37.35Q548.15-37.35 550.3-36.4L550.3-36.4 549.25-31.3Q548.9-31.7 548.17-32.08 547.45-32.45 546.6-32.45L546.6-32.45Q543.25-32.45 543.2-28.1L543.2-28.1 543.2-22.95 548.6-22.95 548.6-18.65 543.2-18.65 543.2 0 537.9 0ZM564.69 0.5Q560.59 0.5 557.84-1.13 555.09-2.75 553.79-5.48 552.5-8.2 552.5-11.45L552.5-11.45Q552.5-15.1 554.02-17.85 555.54-20.6 558.25-22.08 560.94-23.55 564.34-23.55L564.34-23.55Q569.64-23.55 572.22-20.63 574.79-17.7 574.79-12.4L574.79-12.4Q574.79-11.05 574.64-9.6L574.64-9.6 558.14-9.6Q558.69-6.55 560.32-5.2 561.94-3.85 564.84-3.85L564.84-3.85Q567.25-3.85 568.79-4.25 570.34-4.65 571.64-5.35L571.64-5.35 573.29-1.5Q572.04-0.7 569.89-0.1 567.75 0.5 564.69 0.5L564.69 0.5ZM558.14-13.35L569.54-13.35Q569.59-16.45 568.19-17.73 566.79-19 564.19-19L564.19-19Q558.94-19 558.14-13.35L558.14-13.35Z" opacity="1" transform="matrix(1,0,0,1,0,0)" fill="#ffb100" class="slogan-text-1" data-fill-palette-color="secondary" id="text-1"></path></svg></g></svg></g></svg></g></svg></g><g><svg viewBox="0 0 176.34149587632135 176.34149587632135" height="176.34149587632135" width="176.34149587632135"><g><svg></svg></g><g id="icon-0"><svg viewBox="0 0 176.34149587632135 176.34149587632135" height="176.34149587632135" width="176.34149587632135"><g><path transform="scale(1.76341,1.76341)" d="M30 100c-16.569 0-30-13.431-30-30v-40c0-16.569 13.431-30 30-30h40c16.569 0 30 13.431 30 30v40c0 16.569-13.431 30-30 30z" fill="#196221" fill-rule="nonzero" stroke="none" stroke-width="1" stroke-linecap="butt" stroke-linejoin="miter" stroke-miterlimit="10" stroke-dasharray="" stroke-dashoffset="0" font-family="none" font-weight="none" font-size="none" text-anchor="none" style="mix-blend-mode: normal" data-fill-palette-color="accent"></path></g><g transform="matrix(1,0,0,1,35.268299175264275,35.268299175264275)"><svg viewBox="0 0 105.8048975257928 105.8048975257928" height="105.8048975257928" width="105.8048975257928"><g><svg xmlns="http://www.w3.org/2000/svg" xmlns:xlink="http://www.w3.org/1999/xlink" version="1.1" x="0" y="0" viewBox="0 0 48 48" style="enable-background:new 0 0 48 48;" xml:space="preserve" height="105.8048975257928" width="105.8048975257928" class="icon-dxe-0" data-fill-palette-color="quaternary" id="dxe-0"><g fill="#ffb100" data-fill-palette-color="quaternary"><polygon points="0,41 14.3,48 14.3,19.4 0,12.4  " fill="#ffb100" data-fill-palette-color="quaternary"></polygon><path d="M16 19.4V48L30.3 41V24.2C28.5 21.2 26.7 17.8 25.5 14.8z" fill="#ffb100" data-fill-palette-color="quaternary"></path><path d="M45.5 18.3C42.7 24 36.3 33.4 36.3 33.4L32 27V41L48 48V19.4z" fill="#ffb100" data-fill-palette-color="quaternary"></path><path d="M46.2 9.9C46.2 4.4 41.7 0 36.3 0 30.8 0 26.4 4.5 26.4 9.9 26.4 15.4 36.3 29.8 36.3 29.8S46.2 15.4 46.2 9.9M29.3 9.9C29.3 6.1 32.4 3 36.2 3S43.1 6.1 43.1 9.9 40 16.8 36.2 16.8 29.3 13.8 29.3 9.9" fill="#ffb100" data-fill-palette-color="quaternary"></path></g></svg></g></svg></g></svg></g></svg></g></svg></g><defs></defs></svg><rect width="395.52" height="117.2294853485362" fill="none" stroke="none" visibility="hidden"></rect></g></svg></g></svg>