<?xml version="1.0" encoding="utf-8"?>
<svg viewBox="35.7271 36.7753 443.0865 443.0865" width="443.087px" height="443.087px" xmlns="http://www.w3.org/2000/svg"><g transform="matrix(2.5126685078579087, 0, 0, 2.5126685078579087, 35.72707396768035, 36.775260299307774)" id="object-0"><svg viewBox="0 0 176.34149587632135 176.34149587632135" height="176.34149587632135" width="176.34149587632135"><g><svg/></g><g id="icon-0"><svg viewBox="0 0 176.34149587632135 176.34149587632135" height="176.34149587632135" width="176.34149587632135"><g><path transform="scale(1.76341,1.76341)" d="M30 100c-16.569 0-30-13.431-30-30v-40c0-16.569 13.431-30 30-30h40c16.569 0 30 13.431 30 30v40c0 16.569-13.431 30-30 30z" fill="#196221" fill-rule="nonzero" stroke="none" stroke-width="1" stroke-linecap="butt" stroke-linejoin="miter" stroke-miterlimit="10" stroke-dasharray="" stroke-dashoffset="0" font-family="none" font-weight="none" font-size="none" text-anchor="none" style="mix-blend-mode: normal" data-fill-palette-color="accent"/></g><g transform="matrix(1,0,0,1,35.268299175264275,35.268299175264275)"><svg viewBox="0 0 105.8048975257928 105.8048975257928" height="105.8048975257928" width="105.8048975257928"><g><svg xmlns="http://www.w3.org/2000/svg" version="1.1" x="0" y="0" viewBox="0 0 48 48" style="enable-background:new 0 0 48 48;" height="105.8048975257928" width="105.8048975257928" class="icon-dxe-0" data-fill-palette-color="quaternary" id="dxe-0"><g fill="#ffb100" data-fill-palette-color="quaternary"><polygon points="0,41 14.3,48 14.3,19.4 0,12.4  " fill="#ffb100" data-fill-palette-color="quaternary"/><path d="M16 19.4V48L30.3 41V24.2C28.5 21.2 26.7 17.8 25.5 14.8z" fill="#ffb100" data-fill-palette-color="quaternary"/><path d="M45.5 18.3C42.7 24 36.3 33.4 36.3 33.4L32 27V41L48 48V19.4z" fill="#ffb100" data-fill-palette-color="quaternary"/><path d="M46.2 9.9C46.2 4.4 41.7 0 36.3 0 30.8 0 26.4 4.5 26.4 9.9 26.4 15.4 36.3 29.8 36.3 29.8S46.2 15.4 46.2 9.9M29.3 9.9C29.3 6.1 32.4 3 36.2 3S43.1 6.1 43.1 9.9 40 16.8 36.2 16.8 29.3 13.8 29.3 9.9" fill="#ffb100" data-fill-palette-color="quaternary"/></g></svg></g></svg></g></svg></g></svg></g></svg>